<?xml version="1.0" encoding="UTF-8"?>
<svg width="32px" height="32px" viewBox="0 0 32 32" version="1.1" xmlns="http://www.w3.org/2000/svg" xmlns:xlink="http://www.w3.org/1999/xlink">
    <!-- Generator: Sketch 52 (66869) - http://www.bohemiancoding.com/sketch -->
    <title>画板</title>
    <desc>Created with Sketch.</desc>
    <g id="画板" stroke="none" stroke-width="1" fill="none" fill-rule="evenodd">
        <circle id="椭圆形" fill="#60BECA" cx="16" cy="16" r="16"></circle>
        <g id="绿洲_拓扑图" transform="translate(4.000000, 1.000000)">
            <rect id="矩形" fill="#000000" opacity="0" x="0" y="0" width="24" height="24"></rect>
            <path d="M22.5220267,15.8266667 L21.28,15.8266667 L21.28,13.9826667 C21.28,12.3086133 19.9679733,10.9466667 18.3552267,10.9466667 L12.56,10.9466667 L12.56,8.62666667 L13.8475467,8.62666667 C14.1390667,8.62666667 14.3733333,8.41584 14.3733333,8.12429333 L14.3733333,4.51165333 C14.3733333,4.17456 14.1022133,3.88 13.76504,3.88 L10.1524267,3.88 C9.86093333,3.88 9.62666667,4.13762667 9.62666667,4.42917333 L9.62666667,8.04181333 C9.62666667,8.37890667 9.89778667,8.62666667 10.2349333,8.62666667 L11.44,8.62666667 L11.44,10.9466667 L5.38901333,10.9466667 C3.94224,10.9466667 2.72,12.1858933 2.72,13.65272 L2.72,15.8266667 L1.39546667,15.8266667 C1.10397333,15.8266667 0.88,16.0857333 0.88,16.3772267 L0.88,19.9898667 C0.88,20.3269333 1.14082667,20.5733067 1.47797333,20.5733067 L5.09056,20.5733067 C5.38208,20.5733067 5.62666667,20.3638667 5.62666667,20.0723467 L5.62666667,16.45976 C5.62666667,16.12264 5.34525333,15.8266933 5.00810667,15.8266933 L3.78666667,15.8266933 L3.78666667,13.6527467 C3.78666667,12.76408 4.52045333,12.0133333 5.38901333,12.0133333 L11.44,12.0133333 L11.44,15.8266667 L10.1524267,15.8266667 C9.86093333,15.8266667 9.62666667,16.0857333 9.62666667,16.3772267 L9.62666667,19.9898667 C9.62666667,20.3269333 9.89778667,20.5733067 10.2349333,20.5733067 L13.8475467,20.5733067 C14.1390667,20.5733067 14.3733333,20.3638667 14.3733333,20.0723467 L14.3733333,16.45976 C14.3733333,16.12264 14.1022133,15.8266933 13.76504,15.8266933 L12.56,15.8266933 L12.56,12.0133333 L18.3552267,12.0133333 C19.3797867,12.0133333 20.2133333,12.8967733 20.2133333,13.9826667 L20.2133333,15.8266667 L18.90944,15.8266667 C18.6178933,15.8266667 18.3733333,16.0857333 18.3733333,16.3772267 L18.3733333,19.9898667 C18.3733333,20.3269333 18.6547733,20.5733067 18.9918933,20.5733067 L22.60448,20.5733067 C22.896,20.5733067 23.1199733,20.3638667 23.1199733,20.0723467 L23.1199733,16.45976 C23.12,16.12264 22.8591733,15.8266667 22.5220267,15.8266667 Z" id="路径" fill="#FFFFFF"></path>
        </g>
    </g>
</svg>