<?xml version="1.0" encoding="UTF-8"?>
<svg width="32px" height="32px" viewBox="0 0 32 32" version="1.1" xmlns="http://www.w3.org/2000/svg" xmlns:xlink="http://www.w3.org/1999/xlink">
    <!-- Generator: Sketch 52.5 (67469) - http://www.bohemiancoding.com/sketch -->
    <title>分组 2</title>
    <desc>Created with Sketch.</desc>
    <g id="网关" stroke="none" stroke-width="1" fill="none" fill-rule="evenodd">
        <g id="分组-2">
            <circle id="椭圆形" fill="#60BECA" cx="16" cy="16" r="16"></circle>
            <g id="网关" transform="translate(2.000000, 0.000000)">
                <rect id="矩形" fill="#000000" opacity="0" x="0" y="0" width="28" height="28"></rect>
                <path d="M20.2825,13.3 L21.2009,13.3 C21.6116393,13.2999502 21.9846955,13.5394009 22.1557,13.91285 L23.275,16.357425 L23.275,22.575 C23.275,23.154899 22.804899,23.625 22.225,23.625 L5.95,23.625 C5.37010101,23.625 4.9,23.154899 4.9,22.575 L4.9,16.386125 L6.020525,13.916175 C6.19075822,13.5409661 6.56470431,13.2999954 6.976725,13.3 L7.8925,13.3 C7.88083108,13.2423984 7.87496841,13.1837717 7.875,13.125 L7.875,5.25 C7.875,4.76675084 8.26675084,4.375 8.75,4.375 C9.23324916,4.375 9.625,4.76675084 9.625,5.25 L9.625,13.125 C9.625,13.18485 9.61905,13.243475 9.6075,13.3 L18.5675,13.3 C18.5558311,13.2423984 18.5499684,13.1837717 18.55,13.125 L18.55,5.25 C18.55,4.76675084 18.9417508,4.375 19.425,4.375 C19.9082492,4.375 20.3,4.76675084 20.3,5.25 L20.3,13.125 C20.3,13.18485 20.29405,13.243475 20.2825,13.3 Z M7.63315,15.05 C7.5668835,15.0500354 7.50632112,15.0874974 7.4767,15.146775 L6.9517,16.196775 C6.92459971,16.2510079 6.92750006,16.3154039 6.95936596,16.366981 C6.99123186,16.4185581 7.04752298,16.4499676 7.10815,16.45 L21.097475,16.45 C21.1548557,16.4499785 21.2085804,16.4218282 21.2412584,16.3746616 C21.2739364,16.3274949 21.2814156,16.2673049 21.261275,16.213575 L20.867525,15.163575 C20.8419258,15.0952831 20.7766572,15.0500274 20.703725,15.05 L7.63315,15.05 Z M17.7625,19.25 C17.3275758,19.25 16.975,19.6025758 16.975,20.0375 C16.975,20.4724242 17.3275758,20.825 17.7625,20.825 L19.6875,20.825 C20.1224242,20.825 20.475,20.4724242 20.475,20.0375 C20.475,19.6025758 20.1224242,19.25 19.6875,19.25 L17.7625,19.25 Z M14.9625,19.25 C14.5275758,19.25 14.175,19.6025758 14.175,20.0375 C14.175,20.4724242 14.5275758,20.825 14.9625,20.825 L15.3125,20.825 C15.7474242,20.825 16.1,20.4724242 16.1,20.0375 C16.1,19.6025758 15.7474242,19.25 15.3125,19.25 L14.9625,19.25 Z M12.1625,19.25 C11.7275758,19.25 11.375,19.6025758 11.375,20.0375 C11.375,20.4724242 11.7275758,20.825 12.1625,20.825 L12.5125,20.825 C12.9474242,20.825 13.3,20.4724242 13.3,20.0375 C13.3,19.6025758 12.9474242,19.25 12.5125,19.25 L12.1625,19.25 Z" id="形状" fill="#FFFFFF" fill-rule="nonzero"></path>
            </g>
        </g>
    </g>
</svg>