<?xml version="1.0" standalone="no"?><!DOCTYPE svg PUBLIC "-//W3C//DTD SVG 1.1//EN" "http://www.w3.org/Graphics/SVG/1.1/DTD/svg11.dtd"><svg class="icon" width="18px" height="18.00px" viewBox="0 0 1024 1024" version="1.1" xmlns="http://www.w3.org/2000/svg"><path fill="#15D8E3" d="M802.7 326.4c0-144.2-118.8-261-265.4-261.1v-0.1c-70.5 0-138 27.5-187.9 76.5-49.8 49-77.8 115.5-77.8 184.8 0 97.7 55.2 182 136.1 226.7C261 605.1 155.3 741.4 153.8 903.3v5.2c0.2 9.3 2.1 18.1 2.8 27.4h0.6c1.6 14.4 13.9 25.4 28.7 25.4 14.8 0 27.1-10.9 28.7-25.4h0.9c-0.9-9.8-2.9-19.2-2.9-29.1 0-84.7 34.1-165.9 95-225.8 60.9-59.9 143.5-93.5 229.5-93.5l29.5-2.9C699.2 570 802.7 460.7 802.7 326.4zM537.2 529.6c-114.1 0-206.6-91-206.6-203.2s92.5-203.2 206.6-203.2 206.6 91 206.6 203.2-92.5 203.2-206.6 203.2z m326.1 162.6l-22.7-22.1c-9.4-9.1-24.6-9.1-34 0l-28.4 27.6 56.7 55.2 28.3-27.6c9.5-9.1 9.5-23.9 0.1-33.1zM567.8 958.6l90.8-34.9-56.2-54.8z m45.6-100.5l56.7 55.2 154.4-148.9-56.8-55.3z" /></svg>