<?xml version="1.0" encoding="UTF-8"?>
<svg width="18px" height="18px" viewBox="0 0 18 18" version="1.1" xmlns="http://www.w3.org/2000/svg" xmlns:xlink="http://www.w3.org/1999/xlink">
    <!-- Generator: Sketch 52.5 (67469) - http://www.bohemiancoding.com/sketch -->
    <title>组件</title>
    <desc>Created with Sketch.</desc>
    <g id="网关" stroke="none" stroke-width="1" fill="none" fill-rule="evenodd">
        <g id="首页" transform="translate(-25.000000, -224.000000)">
            <g id="组件" transform="translate(25.000000, 224.000000)">
                <rect id="矩形" fill="#000000" opacity="0" x="0" y="0" width="19" height="19"></rect>
                <path d="M16.625,3.5625 L13.65625,3.5625 C13.65625,1.92290465 12.3270954,0.59375 10.6875,0.59375 C9.04790465,0.59375 7.71875,1.92290465 7.71875,3.5625 L4.75,3.5625 C4.09416186,3.5625 3.5625,4.09416186 3.5625,4.75 L3.5625,7.71875 C1.92290465,7.71875 0.59375,9.04790465 0.59375,10.6875 C0.59375,12.3270954 1.92290465,13.65625 3.5625,13.65625 L3.5625,16.625 C3.5625,17.2808381 4.09416186,17.8125 4.75,17.8125 L8.90625,17.8125 L8.90625,16.625 C8.90625,15.6412428 9.70374279,14.84375 10.6875,14.84375 C11.6712572,14.84375 12.46875,15.6412428 12.46875,16.625 L12.46875,17.8125 L16.625,17.8125 C17.2808381,17.8125 17.8125,17.2808381 17.8125,16.625 L17.8125,12.46875 L16.625,12.46875 C15.6412428,12.46875 14.84375,11.6712572 14.84375,10.6875 C14.84375,9.70374279 15.6412428,8.90625 16.625,8.90625 L17.8125,8.90625 L17.8125,4.75 C17.8125,4.09416186 17.2808381,3.5625 16.625,3.5625 Z M13.65625,10.6875 C13.65625,12.3270954 14.9854046,13.65625 16.625,13.65625 L16.625,16.625 L13.65625,16.625 C13.65625,15.5643678 13.0904095,14.5843032 12.171875,14.053987 C11.2533406,13.5236709 10.1216594,13.5236709 9.20312498,14.053987 C8.28459053,14.5843032 7.71874998,15.5643678 7.71875,16.625 L4.75,16.625 L4.75,12.46875 L3.5625,12.46875 C2.57874279,12.46875 1.78125,11.6712572 1.78125,10.6875 C1.78125,9.70374279 2.57874279,8.90625 3.5625,8.90625 L4.75,8.90625 L4.75,4.75 L8.90625,4.75 L8.90625,3.5625 C8.90625,2.57874279 9.70374279,1.78125 10.6875,1.78125 C11.6712572,1.78125 12.46875,2.57874279 12.46875,3.5625 L12.46875,4.75 L16.625,4.75 L16.625,7.71875 C14.9854046,7.71875 13.65625,9.04790465 13.65625,10.6875 Z" id="形状" fill="#C1C5CF" fill-rule="nonzero"></path>
            </g>
        </g>
    </g>
</svg>