<?xml version="1.0" encoding="UTF-8"?>
<svg width="18px" height="16px" viewBox="0 0 18 16" version="1.1" xmlns="http://www.w3.org/2000/svg" xmlns:xlink="http://www.w3.org/1999/xlink">
    <!-- Generator: Sketch 52.5 (67469) - http://www.bohemiancoding.com/sketch -->
    <title>首页</title>
    <desc>Created with Sketch.</desc>
    <g id="网关" stroke="none" stroke-width="1" fill="none" fill-rule="evenodd">
        <g id="首页" transform="translate(-1.000000, -2.000000)" fill="#C1C5CF">
            <rect id="矩形" opacity="0" x="0" y="0" width="20" height="20"></rect>
            <path d="M18.504464,8.34600141 L11.1403169,2.52570758 C10.5063867,2.02370793 9.51174104,2.02432752 8.87835047,2.52570758 L1.51484293,8.34600141 C1.26331346,8.54532627 1.22030264,8.9107585 1.41898791,9.16228797 C1.6176732,9.41389738 1.9750509,9.45690822 2.22668029,9.25824291 L2.45612473,9.06993059 L2.45612473,16.1075191 C2.45612473,17.1051227 3.50729203,17.8505773 4.43162533,17.8505773 L16.0524064,17.8505773 C16.9658471,17.8505773 17.5631621,17.1498924 17.5631621,16.1075191 L17.5631622,9.09723207 L17.7752184,9.25824291 C17.8821659,9.3424658 18.0134569,9.38315822 18.1395314,9.38315822 C18.3109152,9.38315822 18.4829186,9.30762943 18.597361,9.16228797 C18.7966858,8.9107585 18.756613,8.54532627 18.504464,8.34600141 Z M9.42855744,16.6885052 L9.42855744,13.4672492 C9.42855744,13.3069179 9.71910045,13.2267523 10.0096435,13.2267523 C10.3001865,13.2267523 10.5907095,13.3069179 10.5907095,13.4672492 L10.5907095,16.6885052 L9.42855744,16.6885052 Z M16.4010901,16.1074991 C16.4010901,16.4927179 16.2947022,16.6884852 16.0524065,16.6884852 L11.7643738,16.6884852 C11.7643738,16.6797911 11.7527616,16.6728358 11.7527616,16.6641417 L11.7527616,13.4672492 C11.7527616,12.7915073 11.2077711,12.0640206 10.0096435,12.0640206 C8.81157574,12.0640206 8.26650531,12.7915073 8.26650531,13.4672492 L8.26650531,16.6641617 C8.26650531,16.6728558 8.28221467,16.6798111 8.28221467,16.6885052 L4.43162537,16.6885052 C4.06735234,16.6885052 3.61817689,16.3735987 3.61817689,16.1075191 L3.61817689,8.15131342 L9.5907275,3.43740945 C9.80510215,3.26770451 10.1920798,3.26770451 10.407094,3.43740945 L16.4010901,8.17861492 L16.4010901,16.1074991 Z" id="形状" fill-rule="nonzero"></path>
        </g>
    </g>
</svg>