<?xml version="1.0" encoding="UTF-8"?>
<svg width="16px" height="16px" viewBox="0 0 16 16" version="1.1" xmlns="http://www.w3.org/2000/svg" xmlns:xlink="http://www.w3.org/1999/xlink">
    <!-- Generator: Sketch 52.5 (67469) - http://www.bohemiancoding.com/sketch -->
    <title>日志管理</title>
    <desc>Created with Sketch.</desc>
    <g id="网关" stroke="none" stroke-width="1" fill="none" fill-rule="evenodd">
        <g id="首页" transform="translate(-28.000000, -272.000000)">
            <g id="日志管理" transform="translate(28.000000, 272.000000)">
                <rect id="矩形" fill="#000000" opacity="0" x="0" y="0" width="16" height="16"></rect>
                <path d="M6.16932452,15.4314978 L2.55215138,15.4314978 C2.07988857,15.4449405 1.6216461,15.2701304 1.27832829,14.9455603 C0.93501047,14.6209902 0.734769934,14.1732755 0.721699344,13.7010022 L0.721699344,1.7312203 C0.734769934,1.25894704 0.93501047,0.81123232 1.27832829,0.486662232 C1.6216461,0.162092145 2.07988857,-0.0127180147 2.55215138,0.0007246875 L11.4107896,0.0007246875 C12.3846132,-0.0133253575 13.1890156,0.757676264 13.2162525,1.7312203 L13.2162525,7.02266356 C13.1514698,7.3069196 12.8986877,7.50857368 12.607143,7.50857368 C12.3155984,7.50857368 12.0628162,7.3069196 11.9980336,7.02266356 L11.9980336,1.7312203 C11.9719218,1.40584843 11.6997222,1.15542476 11.3733059,1.15647084 L2.55215138,1.15647084 C2.2257351,1.15542476 1.95353547,1.40584843 1.92742372,1.7312203 L1.92742372,13.7010022 C1.95042808,14.028844 2.22350452,14.282805 2.55215137,14.2819989 L6.16932452,14.2819989 C6.48674987,14.2819989 6.74407396,14.539323 6.74407396,14.8567484 C6.74407396,15.1741737 6.48674987,15.4314978 6.16932452,15.4314978 Z" id="路径" fill="#C1C5CF"></path>
                <path d="M9.8802068,4.46752744 L4.10147597,4.46752744 C3.78405062,4.46752744 3.52672652,4.21020335 3.52672652,3.89277799 C3.52672652,3.57535264 3.78405062,3.31802855 4.10147597,3.31802855 L9.8802068,3.31802855 C10.1976322,3.31802855 10.4549562,3.57535264 10.4549562,3.89277799 C10.4549562,4.21020335 10.1976322,4.46752744 9.8802068,4.46752744 Z M9.8802068,7.39750016 L4.10147597,7.39750016 C3.78405062,7.39750016 3.52672652,7.14017606 3.52672652,6.82275071 C3.52672652,6.50532536 3.78405062,6.24800127 4.10147597,6.24800127 L9.8802068,6.24800127 C10.1976322,6.24800127 10.4549562,6.50532536 10.4549562,6.82275071 C10.4549562,7.14017606 10.1976322,7.39750016 9.8802068,7.39750016 Z M15.2653592,11.6643901 C15.2653592,11.3332844 15.0467045,11.1646079 14.6843625,11.1333715 C14.4547064,11.1354348 14.2367756,11.0321156 14.0930079,10.8530151 C13.9492401,10.6739146 13.8954999,10.4387962 13.9471838,10.2150219 C14.0846239,9.59029423 14.0533875,9.50283236 13.4661436,9.17797398 L13.091307,8.97181384 C12.7555341,8.69234656 12.2576229,8.73407097 11.9730445,9.065523 C11.5419824,9.40287594 11.3483168,9.39662866 10.9359965,9.065523 C10.6550458,8.73019661 10.1567858,8.68287583 9.81773403,8.9593193 L9.19300637,9.30291952 C8.91073677,9.43108425 8.77670787,9.75658299 8.88688983,10.0463454 C9.08055541,10.6710731 8.79942795,11.0708988 8.12472208,11.1396188 C7.84359462,11.1708552 7.65617633,11.3207898 7.64368178,11.5706809 C7.61245917,12.0637219 7.61245917,12.5582444 7.64368178,13.0512855 C7.64368178,13.3698966 7.85608919,13.5323258 8.20593667,13.5635621 C8.43355587,13.5620698 8.65012286,13.6615704 8.79726298,13.835244 C8.9444031,14.0089176 9.00697196,14.2388888 8.96810442,14.46317 C8.84315889,15.119134 8.84315889,15.187854 9.46788655,15.525207 C9.59907936,15.6001743 9.73027216,15.6813889 9.86771225,15.7501089 C10.1876354,15.9682112 10.6202489,15.9117833 10.8735238,15.6189161 C11.3545641,15.2065959 11.4982514,15.2128431 12.0042808,15.6189161 C12.2051424,15.7519968 12.4137546,15.8729919 12.6290085,15.9812582 C13.0850597,15.6938835 13.5348636,15.4439924 13.9409366,15.1441231 C14.0362071,14.9975926 14.0570324,14.814793 13.9971621,14.6505883 C13.7660128,14.0883334 14.1346021,13.5947985 14.7843189,13.5323257 C15.0529518,13.5323257 15.2341228,13.3636493 15.2466174,13.1262528 C15.2803068,12.6397036 15.286564,12.151643 15.2653592,11.6643901 Z M11.4357787,13.8384423 C10.8268229,13.8384423 10.2778288,13.4716162 10.0447915,12.9090144 C9.81175422,12.3464126 9.94056642,11.6988299 10.3711632,11.2682332 C10.80176,10.8376364 11.4493426,10.7088242 12.0119444,10.9418615 C12.5745462,11.1748988 12.9413723,11.7238929 12.9413723,12.3328487 C12.9430417,12.7326664 12.7849533,13.1165907 12.502237,13.399307 C12.2195207,13.6820233 11.8355964,13.8401117 11.4357787,13.8384423 Z" id="形状" fill="#C1C5CF" fill-rule="nonzero"></path>
                <polygon id="路径" fill="#C1C5CF" points="3.48924286 9.17797398 7.55621991 9.17797398 7.55621991 10.3337201 3.48924286 10.3337201"></polygon>
            </g>
        </g>
    </g>
</svg>