<?xml version="1.0" encoding="UTF-8"?>
<svg width="16px" height="14px" viewBox="0 0 16 14" version="1.1" xmlns="http://www.w3.org/2000/svg" xmlns:xlink="http://www.w3.org/1999/xlink">
    <!-- Generator: Sketch 52.5 (67469) - http://www.bohemiancoding.com/sketch -->
    <title>监控</title>
    <desc>Created with Sketch.</desc>
    <g id="网关" stroke="none" stroke-width="1" fill="none" fill-rule="evenodd">
        <g id="首页" transform="translate(-30.000000, -354.000000)">
            <g id="监控" transform="translate(30.000000, 353.000000)">
                <rect id="矩形" fill="#000000" opacity="0" x="0" y="0" width="16" height="16"></rect>
                <path d="M15,1.75 L15,5.96875 L14.21875,5.96875 L14.21875,2.53125 L1.78125,2.53125 L1.78125,5.96875 L1,5.96875 L1,1.75 L15,1.75 Z M14.21875,13.46875 L1.78125,13.46875 L1.78125,10.03125 L1,10.03125 L1,14.25 L15,14.25 L15,10.03125 L14.21875,10.03125 L14.21875,13.46875 Z M6.578125,12.396875 L8.7609375,8.6359375 L10.021875,10.21875 L11.65625,6.6234375 L12.4640625,8.334375 L13.9140625,8.334375 L13.9140625,7.553125 L12.9578125,7.553125 L11.6421875,4.765625 L9.8390625,8.734375 L8.6609375,7.2546875 L6.78125,10.4921875 L4.5375,3.603125 L2.8875,7.5546875 L2.084375,7.5546875 L2.084375,8.3359375 L3.4078125,8.3359375 L4.4453125,5.8484375 L6.578125,12.396875 Z" id="形状" stroke="#C1C5CF" stroke-width="0.5" fill="#C1C5CF" fill-rule="nonzero"></path>
            </g>
        </g>
    </g>
</svg>