<?xml version="1.0" encoding="UTF-8"?>
<svg width="18px" height="18px" viewBox="0 0 18 18" version="1.1" xmlns="http://www.w3.org/2000/svg" xmlns:xlink="http://www.w3.org/1999/xlink">
    <!-- Generator: Sketch 52.5 (67469) - http://www.bohemiancoding.com/sketch -->
    <title>路由联通</title>
    <desc>Created with Sketch.</desc>
    <g id="网关" stroke="none" stroke-width="1" fill="none" fill-rule="evenodd">
        <g id="首页" transform="translate(-28.000000, -181.000000)" fill="#C1C5CF" fill-rule="nonzero">
            <g id="路由联通" transform="translate(28.000000, 181.000000)">
                <path d="M4.08,9.625 L2.125,9.625 C1.77982203,9.625 1.5,9.34517797 1.5,9 L1.5,4 L10.875,4 L10.875,9 C10.875,9.34517797 10.595178,9.625 10.25,9.625 L9.17625,9.625 C8.83107203,9.625 8.55125,9.90482203 8.55125,10.25 C8.55125,10.595178 8.83107203,10.875 9.17625,10.875 L10.25,10.875 C11.2855339,10.875 12.125,10.0355339 12.125,9 L12.125,2.125 C12.125,1.08946609 11.2855339,0.25 10.25,0.25 L2.125,0.25 C1.08946609,0.25 0.25,1.08946609 0.25,2.125 L0.25,9 C0.25,10.0355339 1.08946609,10.875 2.125,10.875 L4.08,10.875 C4.42517797,10.875 4.705,10.595178 4.705,10.25 C4.705,9.90482203 4.42517797,9.625 4.08,9.625 Z M1.5,2.125 C1.5,1.77982203 1.77982203,1.5 2.125,1.5 L10.25,1.5 C10.595178,1.5 10.875,1.77982203 10.875,2.125 L10.875,2.75 L1.5,2.75 L1.5,2.125 Z M15.875,7.125 L14.1,7.125 C13.754822,7.125 13.475,7.40482203 13.475,7.75 C13.475,8.09517797 13.754822,8.375 14.1,8.375 L15.875,8.375 C16.220178,8.375 16.5,8.65482203 16.5,9 L16.5,14 L7.125,14 L7.125,9 C7.125,8.65482203 7.40482203,8.375 7.75,8.375 L8.981875,8.375 C9.32705297,8.375 9.606875,8.09517797 9.606875,7.75 C9.606875,7.40482203 9.32705297,7.125 8.981875,7.125 L7.75,7.125 C6.71446609,7.125 5.875,7.96446609 5.875,9 L5.875,15.875 C5.875,16.9105339 6.71446609,17.75 7.75,17.75 L15.875,17.75 C16.9105339,17.75 17.75,16.9105339 17.75,15.875 L17.75,9 C17.75,7.96446609 16.9105339,7.125 15.875,7.125 Z M16.5,15.875 C16.5,16.220178 16.220178,16.5 15.875,16.5 L7.75,16.5 C7.40482203,16.5 7.125,16.220178 7.125,15.875 L7.125,15.25 L16.5,15.25 L16.5,15.875 Z" id="形状"></path>
            </g>
        </g>
    </g>
</svg>