<?xml version="1.0" encoding="UTF-8"?>
<svg width="16px" height="16px" viewBox="0 0 16 16" version="1.1" xmlns="http://www.w3.org/2000/svg" xmlns:xlink="http://www.w3.org/1999/xlink">
    <!-- Generator: Sketch 52.5 (67469) - http://www.bohemiancoding.com/sketch -->
    <title>设置</title>
    <desc>Created with Sketch.</desc>
    <g id="网关" stroke="none" stroke-width="1" fill="none" fill-rule="evenodd">
        <g id="设置" fill="#60BECA" fill-rule="nonzero">
            <path d="M8.78696438,15.9999999 L7.21303586,15.9999999 C6.74841826,16.0010406 6.3297318,15.7197963 6.15500018,15.2892856 C6.0555359,15.0458928 5.91196448,14.6691071 5.75696448,14.1783928 C5.57422639,14.1119642 5.39446449,14.0374404 5.21767878,13.9548214 C4.76107166,14.1921428 4.39285738,14.3571428 4.15053596,14.4589285 C3.72275798,14.6393879 3.22826846,14.542256 2.900536,14.2133928 L1.78571461,13.1001786 C1.45676085,12.7724944 1.35961742,12.2779461 1.5401789,11.8501786 C1.64196461,11.6076786 1.80696461,11.2392858 2.04428603,10.7826786 C1.96238127,10.606131 1.88809556,10.4263096 1.82142889,10.2432144 C1.33089319,10.0882144 0.953928921,9.94464294 0.710536072,9.84517866 C0.280095488,9.67039074 -0.0010697339,9.25171672 3.80495608e-07,8.78714298 L3.80495608e-07,7.21285731 C-0.00104029298,6.74823971 0.280203949,6.32955325 0.710714643,6.15482163 C0.954107493,6.05535735 1.33107177,5.91160735 1.82178604,5.75678593 C1.88821461,5.57392879 1.96267889,5.39422642 2.04517889,5.2176788 C1.80785747,4.76107168 1.64285747,4.3928574 1.54107176,4.15053598 C1.36051028,3.72276852 1.45765371,3.22822013 1.78660747,2.90053602 L2.89982172,1.78571463 C3.22750583,1.45676088 3.72205421,1.35961744 4.14982168,1.54017892 C4.39232167,1.64196463 4.76035737,1.80696463 5.2169645,2.04428605 C5.39375021,1.96250034 5.57369068,1.88821463 5.75678591,1.82142891 C5.9117859,1.33071464 6.05535733,0.953750371 6.15500018,0.710357522 C6.32984438,0.279987049 6.74850596,-0.00109916153 7.21303586,4.01799543e-07 L8.78714295,4.01799543e-07 C9.25176055,-0.00104027168 9.67044702,0.28020397 9.84517863,0.710714665 C9.94464292,0.954107514 10.0883929,1.33107179 10.2432143,1.82160749 C10.4259524,1.88803606 10.6057143,1.96255986 10.7825,2.04517891 C11.2389286,1.80785749 11.6071429,1.64285749 11.8494643,1.54107178 C12.2772317,1.3605103 12.7717801,1.45765373 13.0994642,1.78660749 L14.2142856,2.89982174 C14.5432394,3.22750585 14.6403828,3.72205424 14.4598213,4.1498217 C14.3580356,4.39232169 14.1930356,4.76035739 13.9557142,5.21696452 C14.037619,5.39375023 14.1119047,5.5736907 14.1785714,5.75678593 C14.6691071,5.91178593 15.0460713,6.05535735 15.2894642,6.15482163 C15.7199652,6.3296339 16.0011429,6.74839711 15.9999999,7.21303588 L15.9999999,8.78714298 C16.0010405,9.25176057 15.7197963,9.67044704 15.2892856,9.84517866 C15.0458928,9.94464294 14.6691071,10.0882144 14.1783928,10.2432144 C14.1119642,10.4259524 14.0374404,10.6057143 13.9548214,10.7825001 C14.1921428,11.2389286 14.3571428,11.6071429 14.4589285,11.8494643 C14.63949,12.2772318 14.5423465,12.7717802 14.2133928,13.0994643 L13.1001785,14.2142857 C12.7724944,14.5432394 12.277946,14.6403828 11.8501786,14.4598214 C11.6076786,14.3580357 11.2396429,14.1930357 10.7830357,13.9557142 C10.60625,14.037619 10.4263096,14.1119047 10.2432143,14.1785714 C10.0882143,14.6691071 9.94464292,15.0460713 9.84517863,15.2894642 C9.67036637,15.7199653 9.25160315,16.0011429 8.78696438,15.9999999 Z M5.20875021,12.7410714 C5.30151866,12.7410393 5.39290013,12.7635935 5.4750002,12.8067857 C5.76681898,12.9604029 6.0720791,13.0870018 6.38696446,13.185 C6.56904441,13.2415829 6.71090671,13.3852536 6.76517873,13.5680357 C6.93928587,14.1539285 7.10446444,14.5921428 7.21285729,14.8566071 L8.78714295,14.8566071 C8.89553581,14.5916071 9.06107152,14.1532142 9.23500008,13.5675 C9.2892721,13.3847179 9.43113441,13.2410472 9.61321436,13.1844643 C9.92809971,13.0864661 10.2333598,12.9598671 10.5251786,12.80625 C10.6939825,12.7173474 10.8960193,12.7185532 11.06375,12.8094643 C11.60125,13.1008928 12.0280357,13.29375 12.2917857,13.4044643 L13.4053571,12.2916071 C13.2944642,12.0275 13.1017857,11.6005357 12.8101785,11.0630358 C12.7192675,10.895305 12.7180617,10.6932682 12.8069643,10.5244643 C12.9605796,10.2326447 13.0871785,9.92738477 13.1851785,9.61250009 C13.2417614,9.43042014 13.3854322,9.28855784 13.5682142,9.23428582 C14.1541071,9.06017868 14.5923213,8.89500011 14.8567856,8.78660726 L14.8567856,7.2123216 C14.5917856,7.10392874 14.1535714,6.93839304 13.5676785,6.76446447 C13.3848965,6.71019245 13.2412257,6.56833015 13.1846428,6.3862502 C13.0866428,6.07136552 12.9600439,5.76610557 12.8064285,5.47428594 C12.717526,5.30548205 12.7187318,5.10344526 12.8096428,4.93571453 C13.1010714,4.39821455 13.2939285,3.97142885 13.4044642,3.70767885 L12.2921428,2.59464318 C12.0280357,2.70535746 11.6010714,2.89821459 11.0635715,3.18982173 C10.8958407,3.28073279 10.6938039,3.28193858 10.525,3.19303601 C10.2331813,3.03941887 9.92792114,2.9128199 9.61303578,2.81482174 C9.43095583,2.75823884 9.28909353,2.61456809 9.23482151,2.43178604 C9.06089295,1.84607177 8.89553581,1.40767893 8.78714295,1.14321465 L7.21285729,1.14321465 C7.10571444,1.40714321 6.9403573,1.84303606 6.76642873,2.4251789 C6.71380871,2.61120594 6.57069701,2.758013 6.3860716,2.81535745 C6.0711924,2.91329818 5.76593246,3.03983731 5.47410735,3.19339316 C5.30530346,3.28229573 5.10326666,3.28108994 4.93553594,3.19017887 C4.39803595,2.89875031 3.97125025,2.70589317 3.70750026,2.59535746 L2.59464315,3.70785743 C2.70535744,3.97196456 2.89821457,4.39892883 3.18982171,4.93642881 C3.28073277,5.10415954 3.28193856,5.30619634 3.19303599,5.47500023 C3.03948014,5.76682534 2.91294102,6.07208528 2.81500029,6.38696448 C2.75841739,6.56904443 2.61474665,6.71090673 2.43196459,6.76517876 C1.84607175,6.93910732 1.40785748,7.10446446 1.14321463,7.21285731 L1.14321463,8.78714298 C1.40642891,8.89428583 1.83964318,9.05875011 2.4200003,9.2312501 C2.61351667,9.28423062 2.76519399,9.43462082 2.81982172,9.62767866 C2.91595193,9.93332227 3.03899322,10.2298404 3.18750028,10.5137501 C3.28512601,10.6896222 3.28309136,10.9038708 3.18214314,11.0778572 C2.89517886,11.6083929 2.70482172,12.0301786 2.59517887,12.2921429 L3.70821455,13.4058928 C3.97232168,13.2951785 4.39928595,13.1023214 4.93678594,12.8107143 C5.02023898,12.7652456 5.11371468,12.741309 5.20875021,12.7410714 Z M8.78696438,15.9999999 L7.21303586,15.9999999 C6.74841826,16.0010406 6.3297318,15.7197963 6.15500018,15.2892856 C6.0555359,15.0458928 5.91196448,14.6691071 5.75696448,14.1783928 C5.57422639,14.1119642 5.39446449,14.0374404 5.21767878,13.9548214 C4.76107166,14.1921428 4.39285738,14.3571428 4.15053596,14.4589285 C3.72275798,14.6393879 3.22826846,14.542256 2.900536,14.2133928 L1.78571461,13.1001786 C1.45676085,12.7724944 1.35961742,12.2779461 1.5401789,11.8501786 C1.64196461,11.6076786 1.80696461,11.2392858 2.04428603,10.7826786 C1.96238127,10.606131 1.88809556,10.4263096 1.82142889,10.2432144 C1.33089319,10.0882144 0.953928921,9.94464294 0.710536072,9.84517866 C0.280095488,9.67039074 -0.0010697339,9.25171672 3.80495608e-07,8.78714298 L3.80495608e-07,7.21285731 C-0.00104029298,6.74823971 0.280203949,6.32955325 0.710714643,6.15482163 C0.954107493,6.05535735 1.33107177,5.91160735 1.82178604,5.75678593 C1.88821461,5.57392879 1.96267889,5.39422642 2.04517889,5.2176788 C1.80785747,4.76107168 1.64285747,4.3928574 1.54107176,4.15053598 C1.36051028,3.72276852 1.45765371,3.22822013 1.78660747,2.90053602 L2.89982172,1.78571463 C3.22750583,1.45676088 3.72205421,1.35961744 4.14982168,1.54017892 C4.39232167,1.64196463 4.76035737,1.80696463 5.2169645,2.04428605 C5.39375021,1.96250034 5.57369068,1.88821463 5.75678591,1.82142891 C5.9117859,1.33071464 6.05535733,0.953750371 6.15500018,0.710357522 C6.32984438,0.279987049 6.74850596,-0.00109916153 7.21303586,4.01799543e-07 L8.78714295,4.01799543e-07 C9.25176055,-0.00104027168 9.67044702,0.28020397 9.84517863,0.710714665 C9.94464292,0.954107514 10.0883929,1.33107179 10.2432143,1.82160749 C10.4259524,1.88803606 10.6057143,1.96255986 10.7825,2.04517891 C11.2389286,1.80785749 11.6071429,1.64285749 11.8494643,1.54107178 C12.2772317,1.3605103 12.7717801,1.45765373 13.0994642,1.78660749 L14.2142856,2.89982174 C14.5432394,3.22750585 14.6403828,3.72205424 14.4598213,4.1498217 C14.3580356,4.39232169 14.1930356,4.76035739 13.9557142,5.21696452 C14.037619,5.39375023 14.1119047,5.5736907 14.1785714,5.75678593 C14.6691071,5.91178593 15.0460713,6.05535735 15.2894642,6.15482163 C15.7199652,6.3296339 16.0011429,6.74839711 15.9999999,7.21303588 L15.9999999,8.78714298 C16.0010405,9.25176057 15.7197963,9.67044704 15.2892856,9.84517866 C15.0458928,9.94464294 14.6691071,10.0882144 14.1783928,10.2432144 C14.1119642,10.4259524 14.0374404,10.6057143 13.9548214,10.7825001 C14.1921428,11.2389286 14.3571428,11.6071429 14.4589285,11.8494643 C14.63949,12.2772318 14.5423465,12.7717802 14.2133928,13.0994643 L13.1001785,14.2142857 C12.7724944,14.5432394 12.277946,14.6403828 11.8501786,14.4598214 C11.6076786,14.3580357 11.2396429,14.1930357 10.7830357,13.9557142 C10.60625,14.037619 10.4263096,14.1119047 10.2432143,14.1785714 C10.0882143,14.6691071 9.94464292,15.0460713 9.84517863,15.2894642 C9.67036637,15.7199653 9.25160315,16.0011429 8.78696438,15.9999999 Z M5.20875021,12.7410714 C5.30151866,12.7410393 5.39290013,12.7635935 5.4750002,12.8067857 C5.76681898,12.9604029 6.0720791,13.0870018 6.38696446,13.185 C6.56904441,13.2415829 6.71090671,13.3852536 6.76517873,13.5680357 C6.93928587,14.1539285 7.10446444,14.5921428 7.21285729,14.8566071 L8.78714295,14.8566071 C8.89553581,14.5916071 9.06107152,14.1532142 9.23500008,13.5675 C9.2892721,13.3847179 9.43113441,13.2410472 9.61321436,13.1844643 C9.92809971,13.0864661 10.2333598,12.9598671 10.5251786,12.80625 C10.6939825,12.7173474 10.8960193,12.7185532 11.06375,12.8094643 C11.60125,13.1008928 12.0280357,13.29375 12.2917857,13.4044643 L13.4053571,12.2916071 C13.2944642,12.0275 13.1017857,11.6005357 12.8101785,11.0630358 C12.7192675,10.895305 12.7180617,10.6932682 12.8069643,10.5244643 C12.9605796,10.2326447 13.0871785,9.92738477 13.1851785,9.61250009 C13.2417614,9.43042014 13.3854322,9.28855784 13.5682142,9.23428582 C14.1541071,9.06017868 14.5923213,8.89500011 14.8567856,8.78660726 L14.8567856,7.2123216 C14.5917856,7.10392874 14.1535714,6.93839304 13.5676785,6.76446447 C13.3848965,6.71019245 13.2412257,6.56833015 13.1846428,6.3862502 C13.0866428,6.07136552 12.9600439,5.76610557 12.8064285,5.47428594 C12.717526,5.30548205 12.7187318,5.10344526 12.8096428,4.93571453 C13.1010714,4.39821455 13.2939285,3.97142885 13.4044642,3.70767885 L12.2921428,2.59464318 C12.0280357,2.70535746 11.6010714,2.89821459 11.0635715,3.18982173 C10.8958407,3.28073279 10.6938039,3.28193858 10.525,3.19303601 C10.2331813,3.03941887 9.92792114,2.9128199 9.61303578,2.81482174 C9.43095583,2.75823884 9.28909353,2.61456809 9.23482151,2.43178604 C9.06089295,1.84607177 8.89553581,1.40767893 8.78714295,1.14321465 L7.21285729,1.14321465 C7.10571444,1.40714321 6.9403573,1.84303606 6.76642873,2.4251789 C6.71380871,2.61120594 6.57069701,2.758013 6.3860716,2.81535745 C6.0711924,2.91329818 5.76593246,3.03983731 5.47410735,3.19339316 C5.30530346,3.28229573 5.10326666,3.28108994 4.93553594,3.19017887 C4.39803595,2.89875031 3.97125025,2.70589317 3.70750026,2.59535746 L2.59464315,3.70785743 C2.70535744,3.97196456 2.89821457,4.39892883 3.18982171,4.93642881 C3.28073277,5.10415954 3.28193856,5.30619634 3.19303599,5.47500023 C3.03948014,5.76682534 2.91294102,6.07208528 2.81500029,6.38696448 C2.75841739,6.56904443 2.61474665,6.71090673 2.43196459,6.76517876 C1.84607175,6.93910732 1.40785748,7.10446446 1.14321463,7.21285731 L1.14321463,8.78714298 C1.40642891,8.89428583 1.83964318,9.05875011 2.4200003,9.2312501 C2.61351667,9.28423062 2.76519399,9.43462082 2.81982172,9.62767866 C2.91595193,9.93332227 3.03899322,10.2298404 3.18750028,10.5137501 C3.28512601,10.6896222 3.28309136,10.9038708 3.18214314,11.0778572 C2.89517886,11.6083929 2.70482172,12.0301786 2.59517887,12.2921429 L3.70821455,13.4058928 C3.97232168,13.2951785 4.39928595,13.1023214 4.93678594,12.8107143 C5.02023898,12.7652456 5.11371468,12.741309 5.20875021,12.7410714 Z M8.00000012,11.4285715 C6.10946447,11.4285715 4.5714288,9.8905358 4.5714288,8.00000014 C4.5714288,6.10946449 6.10946447,4.57142883 8.00000012,4.57142883 C9.89053578,4.57142883 11.4285714,6.10946449 11.4285714,8.00000014 C11.4285714,9.8905358 9.89053578,11.4285715 8.00000012,11.4285715 Z M8.00000012,5.71428593 C6.73763502,5.71428593 5.71428591,6.73763504 5.71428591,8.00000014 C5.71428591,9.26236525 6.73763502,10.2857144 8.00000012,10.2857144 C9.26236522,10.2857144 10.2857143,9.26236525 10.2857143,8.00000014 C10.2842383,6.73824694 9.26175333,5.71576196 8.00000012,5.71428593 Z" id="形状"></path>
        </g>
    </g>
</svg>