<?xml version="1.0" encoding="UTF-8"?>
<svg width="16px" height="16px" viewBox="0 0 16 16" version="1.1" xmlns="http://www.w3.org/2000/svg" xmlns:xlink="http://www.w3.org/1999/xlink">
    <!-- Generator: Sketch 52.5 (67469) - http://www.bohemiancoding.com/sketch -->
    <title>形状</title>
    <desc>Created with Sketch.</desc>
    <g id="网关" stroke="none" stroke-width="1" fill="none" fill-rule="evenodd">
        <g id="首页" transform="translate(-29.000000, -397.000000)" fill="#C1C5CF" fill-rule="nonzero">
            <g id="设置" transform="translate(19.000000, 393.000000)">
                <path d="M18.7869644,19.9999999 L17.2130359,19.9999999 C16.7484183,20.0010406 16.3297318,19.7197963 16.1550002,19.2892856 C16.0555359,19.0458928 15.9119645,18.6691071 15.7569645,18.1783928 C15.5742264,18.1119642 15.3944645,18.0374404 15.2176788,17.9548214 C14.7610717,18.1921428 14.3928574,18.3571428 14.150536,18.4589285 C13.722758,18.6393879 13.2282685,18.542256 12.900536,18.2133928 L11.7857146,17.1001786 C11.4567609,16.7724944 11.3596174,16.2779461 11.5401789,15.8501786 C11.6419646,15.6076786 11.8069646,15.2392858 12.044286,14.7826786 C11.9623813,14.606131 11.8880956,14.4263096 11.8214289,14.2432144 C11.3308932,14.0882144 10.9539289,13.9446429 10.7105361,13.8451787 C10.2800955,13.6703907 9.99893027,13.2517167 10.0000004,12.787143 L10.0000004,11.2128573 C9.99895971,10.7482397 10.2802039,10.3295532 10.7107146,10.1548216 C10.9541075,10.0553573 11.3310718,9.91160735 11.821786,9.75678593 C11.8882146,9.57392879 11.9626789,9.39422642 12.0451789,9.2176788 C11.8078575,8.76107168 11.6428575,8.3928574 11.5410718,8.15053598 C11.3605103,7.72276852 11.4576537,7.22822013 11.7866075,6.90053602 L12.8998217,5.78571463 C13.2275058,5.45676088 13.7220542,5.35961744 14.1498217,5.54017892 C14.3923217,5.64196463 14.7603574,5.80696463 15.2169645,6.04428605 C15.3937502,5.96250034 15.5736907,5.88821463 15.7567859,5.82142891 C15.9117859,5.33071464 16.0553573,4.95375037 16.1550002,4.71035752 C16.3298444,4.27998705 16.748506,3.99890084 17.2130359,4.0000004 L18.787143,4.0000004 C19.2517606,3.99895973 19.670447,4.28020397 19.8451786,4.71071466 C19.9446429,4.95410751 20.0883929,5.33107179 20.2432143,5.82160749 C20.4259524,5.88803606 20.6057143,5.96255986 20.7825,6.04517891 C21.2389286,5.80785749 21.6071429,5.64285749 21.8494643,5.54107178 C22.2772317,5.3605103 22.7717801,5.45765373 23.0994642,5.78660749 L24.2142856,6.89982174 C24.5432394,7.22750585 24.6403828,7.72205424 24.4598213,8.1498217 C24.3580356,8.39232169 24.1930356,8.76035739 23.9557142,9.21696452 C24.037619,9.39375023 24.1119047,9.5736907 24.1785714,9.75678593 C24.6691071,9.91178593 25.0460713,10.0553573 25.2894642,10.1548216 C25.7199652,10.3296339 26.0011429,10.7483971 25.9999999,11.2130359 L25.9999999,12.787143 C26.0010405,13.2517606 25.7197963,13.670447 25.2892856,13.8451787 C25.0458928,13.9446429 24.6691071,14.0882144 24.1783928,14.2432144 C24.1119642,14.4259524 24.0374404,14.6057143 23.9548214,14.7825001 C24.1921428,15.2389286 24.3571428,15.6071429 24.4589285,15.8494643 C24.63949,16.2772318 24.5423465,16.7717802 24.2133928,17.0994643 L23.1001785,18.2142857 C22.7724944,18.5432394 22.277946,18.6403828 21.8501786,18.4598214 C21.6076786,18.3580357 21.2396429,18.1930357 20.7830357,17.9557142 C20.60625,18.037619 20.4263096,18.1119047 20.2432143,18.1785714 C20.0882143,18.6691071 19.9446429,19.0460713 19.8451786,19.2894642 C19.6703664,19.7199653 19.2516032,20.0011429 18.7869644,19.9999999 Z M15.2087502,16.7410714 C15.3015187,16.7410393 15.3929001,16.7635935 15.4750002,16.8067857 C15.766819,16.9604029 16.0720791,17.0870018 16.3869645,17.185 C16.5690444,17.2415829 16.7109067,17.3852536 16.7651787,17.5680357 C16.9392859,18.1539285 17.1044644,18.5921428 17.2128573,18.8566071 L18.787143,18.8566071 C18.8955358,18.5916071 19.0610715,18.1532142 19.2350001,17.5675 C19.2892721,17.3847179 19.4311344,17.2410472 19.6132144,17.1844643 C19.9280997,17.0864661 20.2333598,16.9598671 20.5251786,16.80625 C20.6939825,16.7173474 20.8960193,16.7185532 21.06375,16.8094643 C21.60125,17.1008928 22.0280357,17.29375 22.2917857,17.4044643 L23.4053571,16.2916071 C23.2944642,16.0275 23.1017857,15.6005357 22.8101785,15.0630358 C22.7192675,14.895305 22.7180617,14.6932682 22.8069643,14.5244643 C22.9605796,14.2326447 23.0871785,13.9273848 23.1851785,13.6125001 C23.2417614,13.4304201 23.3854322,13.2885578 23.5682142,13.2342858 C24.1541071,13.0601787 24.5923213,12.8950001 24.8567856,12.7866073 L24.8567856,11.2123216 C24.5917856,11.1039287 24.1535714,10.938393 23.5676785,10.7644645 C23.3848965,10.7101924 23.2412257,10.5683301 23.1846428,10.3862502 C23.0866428,10.0713655 22.9600439,9.76610557 22.8064285,9.47428594 C22.717526,9.30548205 22.7187318,9.10344526 22.8096428,8.93571453 C23.1010714,8.39821455 23.2939285,7.97142885 23.4044642,7.70767885 L22.2921428,6.59464318 C22.0280357,6.70535746 21.6010714,6.89821459 21.0635715,7.18982173 C20.8958407,7.28073279 20.6938039,7.28193858 20.525,7.19303601 C20.2331813,7.03941887 19.9279211,6.9128199 19.6130358,6.81482174 C19.4309558,6.75823884 19.2890935,6.61456809 19.2348215,6.43178604 C19.0608929,5.84607177 18.8955358,5.40767893 18.787143,5.14321465 L17.2128573,5.14321465 C17.1057144,5.40714321 16.9403573,5.84303606 16.7664287,6.4251789 C16.7138087,6.61120594 16.570697,6.758013 16.3860716,6.81535745 C16.0711924,6.91329818 15.7659325,7.03983731 15.4741073,7.19339316 C15.3053035,7.28229573 15.1032667,7.28108994 14.9355359,7.19017887 C14.398036,6.89875031 13.9712503,6.70589317 13.7075003,6.59535746 L12.5946432,7.70785743 C12.7053574,7.97196456 12.8982146,8.39892883 13.1898217,8.93642881 C13.2807328,9.10415954 13.2819386,9.30619634 13.193036,9.47500023 C13.0394801,9.76682534 12.912941,10.0720853 12.8150003,10.3869645 C12.7584174,10.5690444 12.6147466,10.7109067 12.4319646,10.7651788 C11.8460717,10.9391073 11.4078575,11.1044645 11.1432146,11.2128573 L11.1432146,12.787143 C11.4064289,12.8942858 11.8396432,13.0587501 12.4200003,13.2312501 C12.6135167,13.2842306 12.765194,13.4346208 12.8198217,13.6276787 C12.9159519,13.9333223 13.0389932,14.2298404 13.1875003,14.5137501 C13.285126,14.6896222 13.2830914,14.9038708 13.1821431,15.0778572 C12.8951789,15.6083929 12.7048217,16.0301786 12.5951789,16.2921429 L13.7082145,17.4058928 C13.9723217,17.2951785 14.399286,17.1023214 14.9367859,16.8107143 C15.020239,16.7652456 15.1137147,16.741309 15.2087502,16.7410714 Z M18.7869644,19.9999999 L17.2130359,19.9999999 C16.7484183,20.0010406 16.3297318,19.7197963 16.1550002,19.2892856 C16.0555359,19.0458928 15.9119645,18.6691071 15.7569645,18.1783928 C15.5742264,18.1119642 15.3944645,18.0374404 15.2176788,17.9548214 C14.7610717,18.1921428 14.3928574,18.3571428 14.150536,18.4589285 C13.722758,18.6393879 13.2282685,18.542256 12.900536,18.2133928 L11.7857146,17.1001786 C11.4567609,16.7724944 11.3596174,16.2779461 11.5401789,15.8501786 C11.6419646,15.6076786 11.8069646,15.2392858 12.044286,14.7826786 C11.9623813,14.606131 11.8880956,14.4263096 11.8214289,14.2432144 C11.3308932,14.0882144 10.9539289,13.9446429 10.7105361,13.8451787 C10.2800955,13.6703907 9.99893027,13.2517167 10.0000004,12.787143 L10.0000004,11.2128573 C9.99895971,10.7482397 10.2802039,10.3295532 10.7107146,10.1548216 C10.9541075,10.0553573 11.3310718,9.91160735 11.821786,9.75678593 C11.8882146,9.57392879 11.9626789,9.39422642 12.0451789,9.2176788 C11.8078575,8.76107168 11.6428575,8.3928574 11.5410718,8.15053598 C11.3605103,7.72276852 11.4576537,7.22822013 11.7866075,6.90053602 L12.8998217,5.78571463 C13.2275058,5.45676088 13.7220542,5.35961744 14.1498217,5.54017892 C14.3923217,5.64196463 14.7603574,5.80696463 15.2169645,6.04428605 C15.3937502,5.96250034 15.5736907,5.88821463 15.7567859,5.82142891 C15.9117859,5.33071464 16.0553573,4.95375037 16.1550002,4.71035752 C16.3298444,4.27998705 16.748506,3.99890084 17.2130359,4.0000004 L18.787143,4.0000004 C19.2517606,3.99895973 19.670447,4.28020397 19.8451786,4.71071466 C19.9446429,4.95410751 20.0883929,5.33107179 20.2432143,5.82160749 C20.4259524,5.88803606 20.6057143,5.96255986 20.7825,6.04517891 C21.2389286,5.80785749 21.6071429,5.64285749 21.8494643,5.54107178 C22.2772317,5.3605103 22.7717801,5.45765373 23.0994642,5.78660749 L24.2142856,6.89982174 C24.5432394,7.22750585 24.6403828,7.72205424 24.4598213,8.1498217 C24.3580356,8.39232169 24.1930356,8.76035739 23.9557142,9.21696452 C24.037619,9.39375023 24.1119047,9.5736907 24.1785714,9.75678593 C24.6691071,9.91178593 25.0460713,10.0553573 25.2894642,10.1548216 C25.7199652,10.3296339 26.0011429,10.7483971 25.9999999,11.2130359 L25.9999999,12.787143 C26.0010405,13.2517606 25.7197963,13.670447 25.2892856,13.8451787 C25.0458928,13.9446429 24.6691071,14.0882144 24.1783928,14.2432144 C24.1119642,14.4259524 24.0374404,14.6057143 23.9548214,14.7825001 C24.1921428,15.2389286 24.3571428,15.6071429 24.4589285,15.8494643 C24.63949,16.2772318 24.5423465,16.7717802 24.2133928,17.0994643 L23.1001785,18.2142857 C22.7724944,18.5432394 22.277946,18.6403828 21.8501786,18.4598214 C21.6076786,18.3580357 21.2396429,18.1930357 20.7830357,17.9557142 C20.60625,18.037619 20.4263096,18.1119047 20.2432143,18.1785714 C20.0882143,18.6691071 19.9446429,19.0460713 19.8451786,19.2894642 C19.6703664,19.7199653 19.2516032,20.0011429 18.7869644,19.9999999 Z M15.2087502,16.7410714 C15.3015187,16.7410393 15.3929001,16.7635935 15.4750002,16.8067857 C15.766819,16.9604029 16.0720791,17.0870018 16.3869645,17.185 C16.5690444,17.2415829 16.7109067,17.3852536 16.7651787,17.5680357 C16.9392859,18.1539285 17.1044644,18.5921428 17.2128573,18.8566071 L18.787143,18.8566071 C18.8955358,18.5916071 19.0610715,18.1532142 19.2350001,17.5675 C19.2892721,17.3847179 19.4311344,17.2410472 19.6132144,17.1844643 C19.9280997,17.0864661 20.2333598,16.9598671 20.5251786,16.80625 C20.6939825,16.7173474 20.8960193,16.7185532 21.06375,16.8094643 C21.60125,17.1008928 22.0280357,17.29375 22.2917857,17.4044643 L23.4053571,16.2916071 C23.2944642,16.0275 23.1017857,15.6005357 22.8101785,15.0630358 C22.7192675,14.895305 22.7180617,14.6932682 22.8069643,14.5244643 C22.9605796,14.2326447 23.0871785,13.9273848 23.1851785,13.6125001 C23.2417614,13.4304201 23.3854322,13.2885578 23.5682142,13.2342858 C24.1541071,13.0601787 24.5923213,12.8950001 24.8567856,12.7866073 L24.8567856,11.2123216 C24.5917856,11.1039287 24.1535714,10.938393 23.5676785,10.7644645 C23.3848965,10.7101924 23.2412257,10.5683301 23.1846428,10.3862502 C23.0866428,10.0713655 22.9600439,9.76610557 22.8064285,9.47428594 C22.717526,9.30548205 22.7187318,9.10344526 22.8096428,8.93571453 C23.1010714,8.39821455 23.2939285,7.97142885 23.4044642,7.70767885 L22.2921428,6.59464318 C22.0280357,6.70535746 21.6010714,6.89821459 21.0635715,7.18982173 C20.8958407,7.28073279 20.6938039,7.28193858 20.525,7.19303601 C20.2331813,7.03941887 19.9279211,6.9128199 19.6130358,6.81482174 C19.4309558,6.75823884 19.2890935,6.61456809 19.2348215,6.43178604 C19.0608929,5.84607177 18.8955358,5.40767893 18.787143,5.14321465 L17.2128573,5.14321465 C17.1057144,5.40714321 16.9403573,5.84303606 16.7664287,6.4251789 C16.7138087,6.61120594 16.570697,6.758013 16.3860716,6.81535745 C16.0711924,6.91329818 15.7659325,7.03983731 15.4741073,7.19339316 C15.3053035,7.28229573 15.1032667,7.28108994 14.9355359,7.19017887 C14.398036,6.89875031 13.9712503,6.70589317 13.7075003,6.59535746 L12.5946432,7.70785743 C12.7053574,7.97196456 12.8982146,8.39892883 13.1898217,8.93642881 C13.2807328,9.10415954 13.2819386,9.30619634 13.193036,9.47500023 C13.0394801,9.76682534 12.912941,10.0720853 12.8150003,10.3869645 C12.7584174,10.5690444 12.6147466,10.7109067 12.4319646,10.7651788 C11.8460717,10.9391073 11.4078575,11.1044645 11.1432146,11.2128573 L11.1432146,12.787143 C11.4064289,12.8942858 11.8396432,13.0587501 12.4200003,13.2312501 C12.6135167,13.2842306 12.765194,13.4346208 12.8198217,13.6276787 C12.9159519,13.9333223 13.0389932,14.2298404 13.1875003,14.5137501 C13.285126,14.6896222 13.2830914,14.9038708 13.1821431,15.0778572 C12.8951789,15.6083929 12.7048217,16.0301786 12.5951789,16.2921429 L13.7082145,17.4058928 C13.9723217,17.2951785 14.399286,17.1023214 14.9367859,16.8107143 C15.020239,16.7652456 15.1137147,16.741309 15.2087502,16.7410714 Z M18.0000001,15.4285715 C16.1094645,15.4285715 14.5714288,13.8905358 14.5714288,12.0000001 C14.5714288,10.1094645 16.1094645,8.57142883 18.0000001,8.57142883 C19.8905358,8.57142883 21.4285714,10.1094645 21.4285714,12.0000001 C21.4285714,13.8905358 19.8905358,15.4285715 18.0000001,15.4285715 Z M18.0000001,9.71428593 C16.737635,9.71428593 15.7142859,10.737635 15.7142859,12.0000001 C15.7142859,13.2623652 16.737635,14.2857144 18.0000001,14.2857144 C19.2623652,14.2857144 20.2857143,13.2623652 20.2857143,12.0000001 C20.2842383,10.7382469 19.2617533,9.71576196 18.0000001,9.71428593 Z" id="形状"></path>
            </g>
        </g>
    </g>
</svg>