<?xml version="1.0" standalone="no"?><!DOCTYPE svg PUBLIC "-//W3C//DTD SVG 1.1//EN" "http://www.w3.org/Graphics/SVG/1.1/DTD/svg11.dtd"><svg class="icon" width="18px" height="18.00px" viewBox="0 0 1024 1024" version="1.1" xmlns="http://www.w3.org/2000/svg"><path fill="#15D8E3" d="M130.9 777.9V737v16.2c0.8 13.8 12.2 24.7 26.2 24.7h-26.2zM130.9 710.3h40.9-16.2c-13.8 0.8-24.7 12.2-24.7 26.2v-26.2zM873.6 710.6v40.9-16.2c-0.8-13.8-12.2-24.7-26.2-24.7h26.2z"  /><path fill="#15D8E3" d="M873.6 777.5h-40.9 16.2c13.8-0.8 24.7-12.2 24.7-26.2v26.2zM955.3 935.3c0 22.6-18.3 41-41 41h-824c-22.6 0-41-18.3-41-41 0-22.6 18.3-41 41-41h824c22.7 0.1 41 18.4 41 41zM509.4 40c-139.2 0-252 112.8-252 252 0 101.6 60.1 189.2 146.8 229l35.2-74c-59-26.7-100.1-86.1-100.1-155.1 0-93.9 76.2-170.1 170.1-170.1S679.5 198.1 679.5 292c0 68.3-40.3 127.2-98.3 154.2l35.2 69.8-1.5 4.9C701.4 481 761.4 393.5 761.4 292c0-139.2-112.8-252-252-252z"  /><path fill="#15D8E3" d="M49.4 692.4v103.5c2.3 34.6 30.4 62.1 65.3 63.4h778.6c32.5-2.7 58.5-28.1 62.1-60.3V686.7c-4.5-31.1-30.1-55.4-61.8-57.9H704.7l-69.5-161.2c-9-20.8-33.1-30.3-53.8-21.4-20.8 9-30.3 33.1-21.4 53.8l80.1 185.8c5.9 13.7 18.4 22.5 32.2 24.4 2.1 0.3 4.2 0.5 6.3 0.5h194.8v66.7H131.3v-66.7h209.8c4.3 0 8.4-0.7 12.3-1.9 11.4-3.3 21.3-11.4 26.3-23.2l79.9-185.2c9-20.8-0.6-44.9-21.4-53.8-20.8-9-44.9 0.6-53.8 21.4l-69.3 160.8H112.7c-34 2.3-61.1 29.5-63.3 63.6z"  /></svg>