<?xml version="1.0" standalone="no"?><!DOCTYPE svg PUBLIC "-//W3C//DTD SVG 1.1//EN" "http://www.w3.org/Graphics/SVG/1.1/DTD/svg11.dtd"><svg class="icon" width="18px" height="18.00px" viewBox="0 0 1024 1024" version="1.1" xmlns="http://www.w3.org/2000/svg"><path fill="#15D8E3" d="M723.3536 624.093867l-98.850133-136.0896a17.373867 17.373867 0 0 1 3.822933-24.029867l27.374933-19.8656a16.964267 16.964267 0 0 1 24.029867 3.754667l120.251733 165.546666a17.066667 17.066667 0 0 1 3.1744 10.683734 17.066667 17.066667 0 0 1-3.1744 10.683733l-120.251733 165.512533a16.964267 16.964267 0 0 1-24.029867 3.754667l-27.374933-19.8656a17.373867 17.373867 0 0 1-3.822933-24.029867l98.850133-136.055466z m-511.658667 0a17.066667 17.066667 0 0 1 3.208534-10.717867l120.251733-165.4784a16.964267 16.964267 0 0 1 24.029867-3.7888l27.3408 19.8656a17.373867 17.373867 0 0 1 3.857066 24.029867L291.498667 624.093867l98.884266 136.055466a17.373867 17.373867 0 0 1-3.857066 24.029867l-27.3408 19.8656a16.964267 16.964267 0 0 1-24.029867-3.754667l-120.251733-165.512533a17.066667 17.066667 0 0 1-3.208534-10.683733zM907.127467 217.156267c21.162667 21.128533 38.843733 63.419733 38.843733 93.696v658.295466c0 30.276267-24.576 54.852267-54.852267 54.852267h-768C92.842667 1024 68.266667 999.424 68.266667 969.147733V54.852267C68.266667 24.576 92.842667 0 123.118933 0h512c30.276267 0 72.567467 17.7152 93.730134 38.843733l178.2784 178.312534zM648.533333 58.026667V297.301333h235.451734c-3.413333-9.728-55.808-69.7344-92.842667-104.6528l-95.914667-97.006933c-3.9936-3.9936-36.9664-34.133333-46.6944-37.546667z m229.034667 897.8432v-590.165334h-242.449067c-30.276267 0-54.852267-24.576-54.852266-54.8864V58.504533H136.533333v897.365334h741.034667zM478.276267 382.702933a16.861867 16.861867 0 0 1 18.363733-15.7696l33.723733 2.3552c9.489067 0.682667 16.657067 8.8064 16.008534 18.193067l-33.348267 476.740267a16.861867 16.861867 0 0 1-18.363733 15.803733l-33.757867-2.3552a17.134933 17.134933 0 0 1-15.9744-18.193067l33.348267-476.7744z" /></svg>