<?xml version="1.0" encoding="UTF-8"?>
<svg width="18px" height="18px" viewBox="0 0 18 18" version="1.1" xmlns="http://www.w3.org/2000/svg" xmlns:xlink="http://www.w3.org/1999/xlink">
    <!-- Generator: Sketch 52.5 (67469) - http://www.bohemiancoding.com/sketch -->
    <title>标识类_黑名单</title>
    <desc>Created with Sketch.</desc>
    <g id="网关" stroke="none" stroke-width="1" fill="none" fill-rule="evenodd">
        <g id="标识类_黑名单" transform="translate(1.000000, 1.000000)">
            <rect id="矩形" fill="#000000" opacity="0" x="0" y="0" width="16" height="16"></rect>
            <path d="M11.5,7 C9.01471863,7 7,9.01471863 7,11.5 C7,13.9852814 9.01471863,16 11.5,16 C13.9852814,16 16,13.9852814 16,11.5 C16,9.01471863 13.9852814,7 11.5,7 Z M11.5,15 C9.57,15 8,13.43 8,11.5 C8,9.57 9.57,8 11.5,8 C13.43,8 15,9.57 15,11.5 C15,13.43 13.43,15 11.5,15 Z M14,11 L14,12 L9,12 L9,11 L14,11 Z M7.233,7.976 C6.95197147,8.3133898 6.71258248,8.68338512 6.52,9.078 C3.52597553,9.52670111 1.23747169,11.9818677 1,15 L0,15 C0.205681194,11.9303527 2.26515372,9.29763723 5.195,8.359 C3.872,7.575 2.975,6.149 2.975,4.5 C2.975,2.01471863 4.98971863,-1.27441154e-13 7.475,-1.27897692e-13 C9.96028137,-1.28354231e-13 11.975,2.01471863 11.975,4.5 C11.975,5.033 11.873,5.54 11.701,6.012 C11.617,6.009 11.534,6 11.45,6 C11.154,6 10.867,6.03 10.583,6.075 C10.8369127,5.5885887 10.971289,5.04868372 10.975,4.5 C10.975,2.57 9.405,1 7.474,1 C5.543,1 3.975,2.57 3.975,4.5 C3.975,6.347 5.417,7.849 7.233,7.976 Z" id="形状" stroke="#60BECA" stroke-width="0.5" fill="#60BECA" fill-rule="nonzero"></path>
        </g>
    </g>
</svg>